<?xml version="1.0" encoding="UTF-8"?>
<svg width="220px" height="44px" viewBox="0 0 220 44" version="1.1" xmlns="http://www.w3.org/2000/svg" xmlns:xlink="http://www.w3.org/1999/xlink">
    <title>Artboard Copy 2</title>
    <defs>
        <linearGradient x1="50%" y1="0%" x2="50%" y2="100%" id="linearGradient-1">
            <stop stop-color="#32CAFE" offset="0%"></stop>
            <stop stop-color="#39B2E7" offset="100%"></stop>
        </linearGradient>
        <linearGradient x1="50%" y1="0%" x2="50%" y2="100%" id="linearGradient-2">
            <stop stop-color="#21FCD4" offset="0%"></stop>
            <stop stop-color="#00C4FF" offset="100%"></stop>
        </linearGradient>
    </defs>
    <g id="Artboard-Copy-2" stroke="none" stroke-width="1" fill="none" fill-rule="evenodd">
        <g id="Group-2" fill-rule="nonzero">
            <g id="Group">
                <path d="M14.91325,25.8304045 L15.1058337,26.0229673 C15.8245455,26.7462021 16.4648262,27.4190194 17.0713659,28.0943788 C18.4000005,29.5737639 18.2776478,31.8499832 16.7980833,33.1784568 C15.3185189,34.5069305 13.0420237,34.3845925 11.7133891,32.9052074 C11.1892399,32.3215868 10.6242296,31.7282061 9.97740477,31.0778206 L9.43130721,30.5341182 C9.30528463,30.4097741 9.17474943,30.2816815 9.03659997,30.1467512 L7.14115065,28.3112396 C6.03013883,27.2316981 5.25819716,26.4491033 4.53723574,25.6516855 C2.59151513,23.4996255 1.32417911,21.5339893 0.674262362,19.3193082 C-0.95538625,13.7660555 0.374296857,8.60276973 4.60607309,4.03848459 C6.81930813,1.65134613 9.68564403,0.382526753 12.865633,0.0740754417 C15.2149797,-0.153805562 17.6220391,0.158260714 19.7244422,0.815475608 C22.2708638,1.61149146 24.6990439,3.42830101 27.1100471,6.18336082 C28.419535,7.67971623 22.5654472,11.6746621 21.5603674,10.885356 C19.9328958,9.06241332 18.6649058,8.06613596 17.5756235,7.6877916 C14.6120224,6.6584333 12.2679299,6.85418773 9.76408043,9.11289296 C7.14115065,11.4790197 6.74320998,14.3999996 7.58416451,17.2920309 C7.8651967,18.2584968 8.55266639,19.3361503 9.76408043,20.6948764 L9.87919601,20.8230826 C10.7746152,21.8134591 14.9303747,25.8564145 14.91325,25.8304045 Z" id="Path-17" fill="url(#linearGradient-1)"></path>
                <path d="M26.7350718,24.9 C26.4435954,24.9 24.4240935,24.6927619 24.0649562,24.2391879 C22.7701689,22.6039308 21.8830128,21.0248992 21.3742386,19.2934409 C19.7446475,13.7476237 21.0742837,8.59125118 25.3059106,4.03307733 C27.5190675,1.64913509 30.3853023,0.382014575 33.5651791,0.0739762595 C35.9144429,-0.153599627 38.3214174,0.158048813 40.4237463,0.814383739 C42.9700781,1.60933377 45.3981725,3.42371074 47.8090906,6.17508171 C49.1185324,7.66943359 48.9669047,9.94084505 47.4704207,11.2484212 C45.9739368,12.5559974 43.6992846,12.4045857 42.3898428,10.9102338 C40.7774158,9.07011114 39.3642473,8.05533593 38.2750034,7.67749814 C35.3115069,6.6495181 32.9674971,6.84501042 30.463736,9.10069139 C27.8408987,11.46365 27.4429721,14.3807189 28.2838969,17.268878 C28.5649192,18.2340498 29.2523646,19.3102605 30.463736,20.6671673 L30.5788475,20.7952019 C31.4742351,21.7842523 27.8803811,24.9 26.7350718,24.9 Z" id="Path-17" fill="url(#linearGradient-2)" transform="translate(34.700000, 12.450000) scale(-1, 1) translate(-34.700000, -12.450000) "></path>
                <path d="M39.7752937,19.6788798 C40.9447879,18.1824446 43.0946508,17.8485197 44.6679425,18.9511641 C46.2936774,20.0905633 46.6881297,22.3324319 45.5489765,23.9585177 L45.5098396,24.011863 C44.7795293,24.9718823 39.5706359,30.2955219 27.5479524,42.4349673 C26.150911,43.8455765 23.8751074,43.8563308 22.4648028,42.4589878 C21.0544981,41.0616448 21.0437461,38.7853498 22.4407875,37.3747407 L29.3049996,30.432263 C30.6427524,29.0763628 31.8553957,27.8450693 32.9428813,26.7384326 L36.3257586,23.2842234 C37.191193,22.396378 37.9034298,21.661159 38.4616422,21.0794484 L39.167013,20.3394017 C39.2805957,20.2191325 39.381208,20.1118434 39.4686445,20.0177664 L39.7236418,19.7392703 L39.7639739,19.6937258 L39.7752937,19.6788798 Z" id="Path-18" fill="#99E769"></path>
            </g>
            <path d="M62.4236642,34.4959821 C65.4747819,34.4959821 67.8861491,33.8708418 69.6577658,32.6205611 C71.3309594,31.3702804 72.2659793,29.8578441 72.4628256,28.0832521 C72.8073067,26.3086602 72.2413735,24.776058 70.7650263,23.4854457 C70.1252758,22.9208028 69.4117079,22.4065744 68.6243227,21.9427606 C67.8369375,21.4789468 67.1233697,21.0352988 66.4836192,20.6118167 C65.8438687,20.1883345 65.3148443,19.7648523 64.8965459,19.3413701 C64.4782475,18.917888 64.3183098,18.4439912 64.416733,17.91968 C64.6627909,16.7903942 65.8192629,16.2257513 67.8861491,16.2257513 C68.9688038,16.2257513 69.989944,16.3467462 70.9495697,16.588736 C71.9091954,16.8307258 73.6290204,17.3368841 74.0129903,17.4516699 L74.6383157,12.9004368 C72.5714295,12.3357939 69.8054005,12.051427 67.5908796,12.051427 C64.7366082,12.051427 62.4605729,12.5858212 60.7627735,13.6546095 C59.0649741,14.7233979 58.0684397,16.145088 57.7731703,17.91968 C57.4779008,19.6942719 58.0192282,21.2470399 59.3971523,22.5779839 C59.9876912,23.1829584 60.6520475,23.7173526 61.3902211,24.1811664 C62.1283947,24.6449802 62.8050539,25.0987111 63.4201986,25.5423591 C64.0353433,25.9860071 64.5397619,26.439738 64.9334545,26.9035518 C65.3271472,27.3673656 65.462479,27.9320085 65.33945,28.5974805 C65.2164211,29.2629525 64.8719401,29.7267663 64.306007,29.9889219 C63.7400738,30.2510775 62.9895973,30.3821553 62.0545774,30.3821553 C61.1195574,30.3821553 59.9630854,30.200663 58.5851613,29.8376783 C58.0438339,29.6763517 57.576324,29.5150252 57.1826314,29.3536986 C56.7889388,29.1923721 56.5182751,29.091543 56.3706404,29.0512114 C55.9902135,31.7449614 55.8,33.0918365 55.8,33.0918365 C56.4757789,33.4729586 56.2766445,33.4881208 57.8469876,34.0120025 C59.0975133,34.367406 60.4059896,34.4959821 62.4236642,34.4959821 Z M78.0775357,34.2105741 C79.2884253,34.2105741 80.382132,33.9966613 81.3586558,33.5688356 C81.7492654,33.4132626 82.3453341,33.1343193 82.4133016,33.1021167 C82.4586132,33.0806483 82.4990519,33.0623561 82.5346176,33.0472401 L83.1163987,28.9016464 C82.9281247,28.9804614 82.6476673,29.1058359 82.1789359,29.2808555 C81.7102044,29.4558751 81.1535858,29.5433849 80.5090801,29.5433849 C79.8645744,29.5433849 79.4641996,29.329472 79.3079558,28.9016464 C79.1517119,28.4738207 79.1517119,27.8126355 79.3079558,26.9180909 L80.7141501,17.0003138 L85.1493947,17.0003138 L85.7094422,13.0332029 L81.241473,13.0332029 L82.1203444,7.19921639 L76.5541585,8.07431437 L75.8510614,13.0332029 L75.3237385,17.0003138 L73.7417699,27.6765092 C73.4292822,30.0489971 73.6050565,31.7311298 74.2690927,32.7229076 C74.9331289,33.7146853 76.2026099,34.2105741 78.0775357,34.2105741 Z M90.2953909,34.2105741 C92.4046824,34.2105741 94.5725653,33.2187964 96.7990397,31.235241 L96.7990397,33.6855153 L101.369171,33.6855153 L104.223505,13.7249031 C101.215812,13.1415045 98.244295,12.6831637 95.2756625,12.6831637 C92.7757614,12.6831637 90.6860004,13.4999219 89.0063794,15.1334381 C88.1079775,16.0279827 87.3267584,17.1753334 86.6627222,18.5754902 C85.998686,19.9756469 85.5299545,21.6577797 85.2565278,23.6218885 C84.9831012,25.5859973 84.9245097,27.2292369 85.0807536,28.5516072 C85.510424,32.3242518 87.2486365,34.2105741 90.2953909,34.2105741 Z M93.2835538,29.6017247 C92.1898471,29.6017247 91.4574542,29.1544524 91.0863752,28.2599078 C90.7152961,27.3653632 90.6957657,25.7026771 91.0277838,23.2718493 C91.3598019,20.8410216 91.9066552,19.1588888 92.6683438,18.225451 C93.4300324,17.2920131 94.3772605,16.8252942 95.5100282,16.8252942 C96.6427959,16.8252942 97.5607283,16.8641874 98.2638254,16.9419739 L96.7990397,27.6765092 C96.4084301,28.1432281 95.8908725,28.5807771 95.2463668,28.9891562 C94.601861,29.3975352 93.9475901,29.6017247 93.2835538,29.6017247 Z M110.481681,43.369933 C113.208148,43.6915662 115.286178,42.7184712 116.692372,41.4155475 C118.098567,40.1126239 118.996969,38.0998985 119.387578,35.3773714 L122.551515,12.703136 L116.938909,13.5813874 L115.110404,27.2097903 C114.95416,27.32647 114.739325,27.5014896 114.465898,27.7348491 C113.255008,28.8627531 112.180832,29.4267052 111.243369,29.4267052 C110.423089,29.4267052 109.876236,29.1350058 109.602809,28.5516072 C109.485626,28.201568 109.505157,27.2097903 109.661401,25.576274 L111.477735,13.0332029 L105.87415,13.9279578 L103.978032,26.9180909 C103.665544,29.3683653 103.821788,31.1866244 104.446763,32.3728684 C105.071739,33.5591123 106.38028,34.1522343 108.372389,34.1522343 C110.364498,34.1522343 112.395667,33.1215633 114.465898,31.0602214 L114.583081,31.0602214 L113.879984,35.4940512 C113.606557,37.0497809 113.098764,37.4981044 112.356606,38.1592895 C112.005058,38.4704355 111.228857,38.9084369 110.071541,38.6260085 C108.159051,38.1592895 107.328702,37.251784 105.685271,35.950737 L103.074142,39.2861424 C104.233733,41.4155475 108.529989,43.1396978 110.481681,43.369933 Z M128.218302,34.1700404 C131.678603,34.2304402 134.412924,33.5779774 136.421267,32.2126613 C138.42961,30.8473452 139.649891,29.0209337 140.082108,26.7334268 C140.514325,24.4459199 139.820924,22.5277579 138.001905,20.9789408 C137.275247,20.3049718 136.443423,19.7069654 135.506432,19.1849218 C134.569441,18.6628782 133.71319,18.1422439 132.93768,17.6230188 C132.16217,17.1037938 131.537285,16.5482986 131.063025,15.9565332 C130.588765,15.3647679 130.427969,14.6617763 130.580636,13.8475584 C130.590818,13.2642486 131.016916,12.6492991 131.858927,12.0027099 C132.793893,11.3188439 133.861161,10.9873797 135.060732,11.0083172 C136.49099,11.0332812 138.145146,11.4511448 140.0232,12.261908 L142.603926,13.3632282 L143.269807,8.70095222 C142.876557,8.5136356 142.574361,8.4033233 142.209833,8.24518223 C141.845305,8.08704116 140.699978,7.70673898 139.708423,7.41922874 C138.521437,7.11869819 138.120674,6.89570817 135.134044,6.80848662 C131.951353,6.7155393 129.354997,7.38835357 127.347333,8.71478234 C125.339669,10.0412111 124.131093,11.8581021 123.721605,14.1654553 C123.312116,16.4728086 123.993813,18.4004911 125.766696,19.9485028 C126.539491,20.6232772 127.38268,21.2312067 128.296262,21.7722913 C129.209845,22.3133759 130.054561,22.8338089 130.830411,23.3335903 C131.606261,23.8333717 132.243359,24.3501809 132.741705,24.8840179 C133.240052,25.4178549 133.425954,26.0045872 133.29941,26.6442148 C133.172866,27.2838423 132.945059,27.7758305 132.615988,28.1201794 C131.580602,29.2690826 130.047888,29.8258179 128.017845,29.7903852 C126.910549,29.7710582 125.715051,29.5167968 124.431351,29.0276008 C123.926555,28.8631934 123.479771,28.6803489 123.090998,28.4790673 C122.702224,28.2777857 122.393173,28.1362444 122.163844,28.0544433 C121.735129,30.9819469 121.518724,32.5630049 121.514629,32.7976173 C123.573839,33.8060383 125.403924,34.1209153 128.218302,34.1700404 Z M146.232434,34.2105741 C147.443323,34.2105741 148.53703,33.9966613 149.513554,33.5688356 C149.904163,33.4132626 150.255712,33.2576897 150.5682,33.1021167 C150.880687,32.9465437 151.14739,32.7909423 151.273209,32.7229076 L151.857396,28.6944899 C151.701153,28.7333831 150.802565,29.1058359 150.333834,29.2808555 C149.865103,29.4558751 149.308484,29.5433849 148.663978,29.5433849 C148.019472,29.5433849 147.619098,29.329472 147.462854,28.9016464 C147.30661,28.4738207 147.30661,27.8126355 147.462854,26.9180909 L148.538964,17.6604478 L153.050505,17.6604478 L153.608984,13.6933369 L149.066287,13.6933369 L149.945159,7.85935036 L144.378973,8.73444834 L143.675876,13.6933369 L143.148553,17.6604478 L141.896668,27.6765092 C141.58418,30.0489971 141.759955,31.7311298 142.423991,32.7229076 C143.088027,33.7146853 144.357508,34.2105741 146.232434,34.2105741 Z M157.327557,33.6855153 L159.319666,19.2172287 C160.100885,18.5171503 160.745391,18.0115381 161.253183,17.7003922 C161.760976,17.3892462 162.249238,17.2336733 162.717969,17.2336733 C163.1867,17.2336733 163.606606,17.2920131 163.977685,17.4086929 C164.348764,17.5253726 164.651486,17.6031591 164.885852,17.6420523 L165.999089,12.9165232 C165.803784,12.8387367 165.598714,12.7512269 165.383879,12.6539938 C165.169044,12.5567607 164.729608,12.5081441 164.065572,12.5081441 C163.401536,12.5081441 162.620317,12.8192901 161.721915,13.441582 C160.823513,14.0638739 160.081355,14.8417388 159.49544,15.7751766 L159.436849,15.7751766 L159.612623,13.0332029 L154.643319,13.8013979 L151.878554,33.6855153 L157.327557,33.6855153 Z M171.673207,34.2105741 C174.563717,34.2105741 176.848783,33.3743694 178.528404,31.7019599 C179.426806,30.8074153 180.178729,29.6795112 180.784174,28.3182477 C181.389619,26.9569842 181.83882,25.3040213 182.131777,23.3593591 C182.424734,21.414697 182.45403,19.7617341 182.219664,18.4004706 C181.555628,14.5111462 179.036196,12.566484 174.66137,12.566484 C171.927103,12.566484 169.681098,13.4026888 167.923355,15.0750982 C165.970307,16.9030807 164.778948,19.6450544 164.349278,23.3010193 C164.03679,25.2845747 163.997729,26.9569842 164.232095,28.3182477 C164.896131,32.2464653 167.376502,34.2105741 171.673207,34.2105741 Z M172.20053,30.2434633 C171.067762,30.2434633 170.325604,29.7086812 169.974055,28.639117 C169.622507,27.5695528 169.612741,25.8096335 169.944759,23.3593591 C170.276778,20.9090848 170.774805,19.1588888 171.438841,18.1087712 C172.102877,17.0586537 173.001279,16.5335949 174.134047,16.5335949 C175.266814,16.5335949 176.028503,17.0586537 176.419113,18.1087712 C176.809722,19.1588888 176.839018,20.8993615 176.507,23.3301892 C176.174982,25.7610169 175.667189,27.5209362 174.983622,28.609947 C174.300056,29.6989579 173.372358,30.2434633 172.20053,30.2434633 Z M187.40038,33.6855153 L189.392489,19.5672679 C189.509672,19.3339084 190.115116,18.789403 191.208823,17.9337516 C191.794737,17.505926 192.439243,17.2920131 193.14234,17.2920131 C193.96262,17.2920131 194.489943,17.5545425 194.724309,18.0796013 C194.958675,18.6046601 194.978205,19.6061611 194.7829,21.0841044 L193.083749,33.6855153 L198.415569,33.6855153 L200.407678,19.7422875 C200.759226,17.2920131 200.622513,15.4834773 199.997538,14.31668 C199.372562,13.1498827 198.083551,12.566484 196.130503,12.566484 C194.724309,12.566484 193.298584,13.0137563 191.853329,13.9083009 C191.267415,14.2583401 190.788918,14.6083793 190.417839,14.9584185 C190.04676,15.3084577 189.763568,15.5418172 189.568263,15.6584969 L189.45108,15.6584969 L189.685446,13.0332029 L184.880949,13.0332029 L181.951377,33.6855153 L187.40038,33.6855153 Z M208.9376,43.7 C211.632805,43.7 212.869028,42.5243479 214.099448,41.4155475 C215.329868,40.3067472 216.404045,38.0998985 216.794654,35.3773714 L219.9,13.0332029 L215.329868,13.0332029 L214.56818,15.8335165 C213.943205,14.9000786 213.269403,14.1513837 212.546775,13.5874317 C211.824148,13.0234796 210.87692,12.7415036 209.705091,12.7415036 C207.673921,12.7415036 205.857587,13.6943881 204.256088,15.600157 C202.537406,17.6226057 201.424169,20.4618125 200.916376,24.1177774 C200.408584,27.3459166 200.66248,29.8739775 201.678065,31.7019599 C202.146797,32.5576113 202.762007,33.1896265 203.523695,33.5980055 C204.285384,34.0063846 205.203316,34.2105741 206.277492,34.2105741 C207.351669,34.2105741 208.406314,33.8994282 209.44143,33.2771363 C210.476545,32.6548444 211.30659,32.0325525 211.931565,31.4102606 L211.990157,31.4102606 L211.345651,35.4940512 C211.015101,37.0131742 210.649115,37.6534155 209.852426,38.4293977 C209.852426,38.4293977 209.291082,38.9560754 208.197376,38.9560754 C205.772618,38.9560754 204.187444,37.4487337 202.601455,36.1323561 L199.930733,39.4363969 C200.800992,40.731108 202.817078,42.0604984 204.160059,42.6462482 C205.50304,43.2319981 207.38557,43.7 208.9376,43.7 Z M209.001994,29.5433849 C208.377019,29.5433849 207.888757,29.4558751 207.537208,29.2808555 C207.18566,29.1058359 206.931763,28.7849666 206.77552,28.3182477 C206.345849,27.1903436 206.306788,25.6151673 206.658337,23.5927186 C206.892702,21.4924834 207.273547,19.9075838 207.80087,18.8380196 C208.328192,17.7684554 209.23636,17.2336733 210.525371,17.2336733 C211.111285,17.2336733 211.619078,17.3697996 212.048748,17.6420523 C212.478419,17.914305 213.005742,18.4393638 213.630717,19.2172287 L212.51748,27.4431497 C212.12687,27.9098686 211.599547,28.3765876 210.935511,28.8433065 C210.271475,29.3100254 209.626969,29.5433849 209.001994,29.5433849 Z" id="stayStrong" fill="#FFFFFF"></path>
        </g>
    </g>
</svg>